# xmcd
#
# Track frame offsets:
#	150
#	9238
#	22011
#	30170
#	41130
#	60004
#	69330
#	76084
#	86657
#	95292
#
# Disc length: 1399 seconds
#
# Revision: 0
# Processed by: cddbd v1.5.2PL0 Copyright (c) Steve Scherf et al.
# Submitted via: dBpowerAMP V4.0
#
DISCID=6005750a
DTITLE=R.T. and the 44s - Electric Hayride
DYEAR=2011
DGENRE=Folk
TTITLE0=Comin' Round the Mountain
TTITLE1=Catfish
TTITLE2=Chickenwalk
TTITLE3=Cocaine
TTITLE4=Goln' Down South - Born Under a Bad Sign
TTITLE5=Jesse James
TTITLE6=Hey Good Lookin'
TTITLE7=Kaw-Liga
TTITLE8=Carmelita
TTITLE9=Speakin' in Tongues
EXTD=A local singer in the Los Angeles area.
EXTT0=
EXTT1=
EXTT2=
EXTT3=
EXTT4=
EXTT5=
EXTT6=
EXTT7=
EXTT8=
EXTT9=
PLAYORDER=
